<svg width="220" height="130" viewBox="0 0 220 130" fill="none" xmlns="http://www.w3.org/2000/svg">
<path d="M100.41 53.48C75.61 53.48 55.42 33.3 55.42 8.48999H32.99C32.99 25.76 39.52 41.52 50.24 53.48H0.0100098V75.91H50.22C39.52 87.84 33 103.63 33 120.9H55.43C55.43 96.1 75.61 75.91 100.42 75.91V53.48H100.41Z" fill="currentColor"/>
<path d="M202.63 96.5C194.13 88 189.44 76.72 189.44 64.7C189.44 58.67 190.61 52.84 192.85 47.45C195.07 42.07 198.37 37.13 202.61 32.9H202.63L219.65 15.86L203.77 0L186.77 17.02L186.75 17.04C169.19 34.55 140.67 34.55 123.15 17.02V17.04L106.11 0L90.26 15.86L107.28 32.9C124.82 50.41 124.82 78.94 107.3 96.5L90.26 113.54L106.11 129.4L123.15 112.36C131.63 103.86 142.93 99.2 154.95 99.2C166.97 99.2 178.25 103.89 186.75 112.39H186.77L203.77 129.41L219.65 113.55L202.63 96.53V96.51V96.5ZM168.34 78.08C159.59 76.33 150.24 76.33 141.52 78.08C143.29 69.24 143.29 60.09 141.5 51.24C150.36 53.03 159.49 53.03 168.34 51.26C167.47 55.63 167.02 60.12 167.02 64.69C167.02 69.26 167.47 73.71 168.34 78.08Z" fill="currentColor"/>
</svg>
